<svg xmlns="http://www.w3.org/2000/svg" xmlns:xlink="http://www.w3.org/1999/xlink" width="727px" height="155px" viewBox="0 0 727 155" version="1.1">
    <!-- Generator: Sketch 57.1 (83088) - https://sketch.com -->
    <title>Group 2</title>
    <desc>Created with Sketch.</desc>
    <defs>
        <path d="M27.4180153,0.633237084 C31.16266,0.633237084 34.406277,3.23077819 35.2246368,6.88490613 L42.4390153,39.0992371 L139.417262,39.0999038 C147.934502,39.0999038 154.325662,46.8932708 152.65361,55.2458061 L148.946015,73.7919038 L117.18432,60.9185175 C109.610973,57.848912 101.793117,64.6582253 103.706427,72.5305821 L103.768716,72.7743863 L115.913015,118.099904 L49.9090478,118.099904 C47.008026,118.099904 44.5191804,116.335168 43.4574649,113.82065 C42.8268402,112.959499 42.3596438,111.956717 42.1113938,110.848235 L21.0114856,16.6332371 L8.91801529,16.6332371 C4.4997373,16.6332371 0.918015295,13.0515151 0.918015295,8.63323708 C0.918015295,4.21495909 4.4997373,0.633237084 8.91801529,0.633237084 L27.4180153,0.633237084 Z M113.427974,70.1861959 L146.951015,83.7739038 L142.259085,107.254278 C141.927814,108.901198 141.305312,110.42791 140.451634,111.784797 L138.332638,109.430555 L133.718011,117.258582 C132.249355,117.804052 130.666175,118.099904 129.024436,118.099904 L126.266015,118.099904 L113.427974,70.1861959 Z" id="path-1"/>
    </defs>
    <g id="Page-1" stroke="none" stroke-width="1" fill="none" fill-rule="evenodd" opacity="0.95">
        <g id="Blue-Logo-(Outline)" transform="translate(-61.000000, -63.000000)">
            <g id="Group-2" transform="translate(61.036014, 62.876293)">
                <path d="M271.292111,84.9869883 C271.292111,88.9713832 270.720827,92.6114835 269.578243,95.9073984 C268.43566,99.2033133 266.824348,101.993813 264.744259,104.27898 C262.810656,106.44696 260.532846,108.124189 257.910763,109.310719 C255.288679,110.497248 252.512828,111.090504 249.583126,111.090504 C247.034285,111.090504 244.727179,110.812186 242.661739,110.255543 C240.596299,109.6989 238.49427,108.83465 236.355587,107.66277 L236.355587,128.229176 L228.093868,128.229176 L228.093868,61.036793 L236.355587,61.036793 L236.355587,66.1783945 C238.552864,64.3326822 241.021101,62.7872875 243.760372,61.5421641 C246.499644,60.2970406 249.421978,59.6744883 252.527462,59.6744883 C258.44546,59.6744883 263.052348,61.9083527 266.348263,66.3761484 C269.644178,70.8439442 271.292111,77.0474955 271.292111,84.9869883 Z M262.76672,85.2067148 C262.76672,79.2887165 261.755988,74.8649326 259.734493,71.9352305 C257.712999,69.0055283 254.607561,67.5406992 250.418087,67.5406992 C248.045028,67.5406992 245.657357,68.0533894 243.255001,69.0787852 C240.852645,70.1041809 238.552864,71.4518237 236.355587,73.1217539 L236.355587,100.939137 C238.699349,101.993829 240.713489,102.711596 242.398068,103.092457 C244.082646,103.473318 245.994248,103.663746 248.132931,103.663746 C252.732563,103.663746 256.321395,102.111027 258.899532,99.005543 C261.47767,95.9000587 262.76672,91.3004953 262.76672,85.2067148 Z M314.29797,70.045582 L313.858517,70.045582 C312.628042,69.7526118 311.434206,69.5402116 310.276974,69.408375 C309.119741,69.2765384 307.750126,69.2106211 306.168087,69.2106211 C303.619246,69.2106211 301.158333,69.7745803 298.785275,70.9025156 C296.412216,72.0304509 294.127082,73.4879559 291.929806,75.2750742 L291.929806,110.123707 L283.668087,110.123707 L283.668087,61.036793 L291.929806,61.036793 L291.929806,68.2877695 C295.211072,65.6510376 298.10411,63.7833805 300.609005,62.6847422 C303.1139,61.5861039 305.670027,61.036793 308.277462,61.036793 C309.713016,61.036793 310.753045,61.0734137 311.397579,61.1466562 C312.042114,61.2198988 313.008901,61.3590576 314.29797,61.5641367 L314.29797,70.045582 Z M330.453243,52.8190195 L321.136837,52.8190195 L321.136837,44.2496836 L330.453243,44.2496836 L330.453243,52.8190195 Z M329.9259,110.123707 L321.664181,110.123707 L321.664181,61.036793 L329.9259,61.036793 L329.9259,110.123707 Z M382.072384,107.047535 C379.318464,108.365901 376.703744,109.391281 374.228146,110.123707 C371.752547,110.856133 369.123179,111.22234 366.339962,111.22234 C362.795023,111.22234 359.543102,110.702326 356.584103,109.662281 C353.625104,108.622237 351.090949,107.047546 348.981564,104.93816 C346.842881,102.828775 345.187624,100.162786 344.015743,96.9401133 C342.843863,93.7174409 342.257931,89.9528301 342.257931,85.646168 C342.257931,77.6187841 344.462499,71.3200189 348.8717,66.7496836 C353.280902,62.1793482 359.103598,59.8942148 366.339962,59.8942148 C369.152476,59.8942148 371.913679,60.2897187 374.623654,61.0807383 C377.333628,61.8717579 379.816513,62.8385451 382.072384,63.9811289 L382.072384,73.1656992 L381.632931,73.1656992 C379.113387,71.2027988 376.513315,69.6940248 373.832638,68.639332 C371.15196,67.5846393 368.53724,67.0573008 365.9884,67.0573008 C361.300876,67.0573008 357.602183,68.6319921 354.892208,71.7814219 C352.182234,74.9308517 350.827267,79.5523875 350.827267,85.646168 C350.827267,91.5641663 352.152937,96.1124607 354.804318,99.2911875 C357.455698,102.469914 361.183688,104.059254 365.9884,104.059254 C367.65833,104.059254 369.357532,103.83953 371.086056,103.400074 C372.81458,102.960619 374.367299,102.389336 375.744259,101.686207 C376.945437,101.07097 378.073355,100.419121 379.128048,99.7306406 C380.182741,99.0421606 381.017693,98.4489048 381.632931,97.9508555 L382.072384,97.9508555 L382.072384,107.047535 Z M433.252072,86.4371836 L397.085079,86.4371836 C397.085079,89.4547768 397.539176,92.084145 398.447384,94.3253672 C399.355592,96.5665893 400.600696,98.4049498 402.182736,99.8405039 C403.706181,101.246761 405.515245,102.301438 407.609982,103.004566 C409.704719,103.707695 412.011825,104.059254 414.531368,104.059254 C417.871229,104.059254 421.233012,103.392757 424.616818,102.059742 C428.000624,100.726728 430.410267,99.4157057 431.845822,98.1266367 L432.285275,98.1266367 L432.285275,107.135426 C429.502058,108.307307 426.660289,109.288742 423.759884,110.079762 C420.859479,110.870781 417.812634,111.266285 414.619259,111.266285 C406.474687,111.266285 400.117329,109.061717 395.546993,104.652516 C390.976658,100.243314 388.691525,93.9811695 388.691525,85.8658945 C388.691525,77.8385106 390.881444,71.466504 395.261349,66.7496836 C399.641254,62.0328631 405.405356,59.6744883 412.553829,59.6744883 C419.174956,59.6744883 424.279886,61.6080627 427.868771,65.4752695 C431.457656,69.3424764 433.252072,74.8355855 433.252072,81.9547617 L433.252072,86.4371836 Z M425.210079,80.1090586 C425.180782,75.7730994 424.089485,72.4186408 421.936154,70.045582 C419.782822,67.6725233 416.508929,66.4860117 412.114376,66.4860117 C407.690526,66.4860117 404.167612,67.7897096 401.545529,70.3971445 C398.923445,73.0045794 397.436644,76.2418518 397.085079,80.1090586 L425.210079,80.1090586 Z M485.090939,104.542652 C485.090939,112.863006 483.201309,118.971344 479.421993,122.867848 C475.642678,126.764352 469.827306,128.712574 461.975704,128.712574 C459.368269,128.712574 456.826791,128.529471 454.351193,128.163258 C451.875594,127.797045 449.436654,127.277031 447.034298,126.603199 L447.034298,118.165699 L447.473751,118.165699 C448.821414,118.693046 450.960065,119.344895 453.889767,120.121266 C456.819469,120.897637 459.749127,121.285816 462.678829,121.285816 C465.491343,121.285816 467.820422,120.948906 469.666134,120.275074 C471.511846,119.601243 472.947379,118.663752 473.972775,117.462574 C474.99817,116.31999 475.730585,114.943051 476.17004,113.331715 C476.609496,111.720379 476.82922,109.918639 476.82922,107.926441 L476.82922,103.44402 C474.338973,105.436217 471.958626,106.923019 469.688107,107.904469 C467.417587,108.885919 464.52455,109.376637 461.008907,109.376637 C455.149503,109.376637 450.498671,107.259959 447.056271,103.026539 C443.613871,98.7931195 441.892697,92.8239409 441.892697,85.1188242 C441.892697,80.9000531 442.485952,77.2599528 443.672482,74.1984141 C444.859011,71.1368753 446.477647,68.4928588 448.528439,66.2662852 C450.432745,64.1861966 452.747175,62.5675605 455.471798,61.4103281 C458.196421,60.2530958 460.906355,59.6744883 463.601681,59.6744883 C466.443492,59.6744883 468.823839,59.9601299 470.742794,60.5314219 C472.661749,61.1027138 474.690537,61.9742871 476.82922,63.146168 L477.356564,61.036793 L485.090939,61.036793 L485.090939,104.542652 Z M476.82922,96.6324961 L476.82922,69.8698008 C474.631943,68.873702 472.588507,68.1632599 470.698849,67.7384531 C468.809191,67.3136463 466.926886,67.1012461 465.051876,67.1012461 C460.510838,67.1012461 456.936655,68.6246684 454.32922,71.6715586 C451.721785,74.7184488 450.418087,79.1422327 450.418087,84.943043 C450.418087,90.450883 451.384874,94.6256459 453.318478,97.467457 C455.252081,100.309268 458.460057,101.730152 462.942501,101.730152 C465.344857,101.730152 467.754501,101.268731 470.171505,100.345875 C472.588509,99.4230188 474.807725,98.1852382 476.82922,96.6324961 Z M541.939572,86.4371836 L505.772579,86.4371836 C505.772579,89.4547768 506.226676,92.084145 507.134884,94.3253672 C508.043092,96.5665893 509.288196,98.4049498 510.870236,99.8405039 C512.393681,101.246761 514.202745,102.301438 516.297482,103.004566 C518.392219,103.707695 520.699325,104.059254 523.218868,104.059254 C526.558729,104.059254 529.920512,103.392757 533.304318,102.059742 C536.688124,100.726728 539.097767,99.4157057 540.533322,98.1266367 L540.972775,98.1266367 L540.972775,107.135426 C538.189558,108.307307 535.347789,109.288742 532.447384,110.079762 C529.546979,110.870781 526.500134,111.266285 523.306759,111.266285 C515.162187,111.266285 508.804829,109.061717 504.234493,104.652516 C499.664158,100.243314 497.379025,93.9811695 497.379025,85.8658945 C497.379025,77.8385106 499.568944,71.466504 503.948849,66.7496836 C508.328754,62.0328631 514.092856,59.6744883 521.241329,59.6744883 C527.862456,59.6744883 532.967386,61.6080627 536.556271,65.4752695 C540.145156,69.3424764 541.939572,74.8355855 541.939572,81.9547617 L541.939572,86.4371836 Z M533.897579,80.1090586 C533.868282,75.7730994 532.776985,72.4186408 530.623654,70.045582 C528.470322,67.6725233 525.196429,66.4860117 520.801876,66.4860117 C516.378026,66.4860117 512.855112,67.7897096 510.233029,70.3971445 C507.610945,73.0045794 506.124144,76.2418518 505.772579,80.1090586 L533.897579,80.1090586 Z M595.008907,110.123707 L586.747189,110.123707 L586.747189,82.1744883 C586.747189,79.9186176 586.615354,77.8019396 586.351681,75.8243906 C586.088008,73.8468417 585.604614,72.301447 584.901486,71.1881602 C584.16906,69.9576852 583.114383,69.0421671 581.737423,68.4415781 C580.360463,67.8409892 578.573372,67.5406992 576.376095,67.5406992 C574.120224,67.5406992 571.761849,68.0973343 569.3009,69.2106211 C566.83995,70.3239079 564.481575,71.7447921 562.225704,73.4733164 L562.225704,110.123707 L553.963986,110.123707 L553.963986,61.036793 L562.225704,61.036793 L562.225704,66.4860117 C564.803842,64.3473291 567.469831,62.677424 570.223751,61.4762461 C572.977671,60.2750682 575.804791,59.6744883 578.705197,59.6744883 C584.007957,59.6744883 588.050886,61.271152 590.834103,64.4645273 C593.61732,67.6579027 595.008907,72.2574661 595.008907,78.2633555 L595.008907,110.123707 Z M619.294064,52.8190195 L609.977657,52.8190195 L609.977657,44.2496836 L619.294064,44.2496836 L619.294064,52.8190195 Z M618.76672,110.123707 L610.505001,110.123707 L610.505001,61.036793 L618.76672,61.036793 L618.76672,110.123707 Z M675.307736,110.123707 L667.046017,110.123707 L667.046017,104.674488 C664.2628,106.871765 661.596811,108.556318 659.04797,109.728199 C656.499129,110.90008 653.686657,111.486012 650.61047,111.486012 C645.454194,111.486012 641.440562,109.91132 638.569454,106.761891 C635.698346,103.612461 634.262814,98.990925 634.262814,92.8971445 L634.262814,61.036793 L642.524532,61.036793 L642.524532,88.9860117 C642.524532,91.4762585 642.641719,93.6075849 642.876095,95.3800547 C643.110471,97.1525245 643.608513,98.6686226 644.370236,99.9283945 C645.161255,101.217463 646.186636,102.154954 647.446407,102.740895 C648.706179,103.326835 650.537216,103.619801 652.939572,103.619801 C655.078254,103.619801 657.414656,103.063166 659.948849,101.949879 C662.483041,100.836592 664.84874,99.4157079 667.046017,97.6871836 L667.046017,61.036793 L675.307736,61.036793 L675.307736,110.123707 Z M726.135861,95.9733164 C726.135861,100.455761 724.282852,104.132482 720.576779,107.00359 C716.870705,109.874698 711.809721,111.31023 705.393673,111.31023 C701.760842,111.31023 698.428356,110.878106 695.396114,110.013844 C692.363873,109.149582 689.822394,108.204767 687.771603,107.179371 L687.771603,97.9069102 L688.211056,97.9069102 C690.818491,99.8698106 693.718852,101.429854 696.912228,102.587086 C700.105603,103.744318 703.167096,104.322926 706.096798,104.322926 C709.729629,104.322926 712.571397,103.736994 714.622189,102.565113 C716.67298,101.393232 717.698361,99.5475477 717.698361,97.0280039 C717.698361,95.0944005 717.141726,93.6295714 716.028439,92.6334727 C714.915152,91.6373739 712.776501,90.787773 709.612423,90.0846445 C708.440542,89.8209713 706.909796,89.5133572 705.020138,89.161793 C703.13048,88.8102287 701.409306,88.4293731 699.856564,88.0192148 C695.549902,86.876631 692.495733,85.1994017 690.693966,82.9874766 C688.892199,80.7755514 687.991329,78.0582935 687.991329,74.8356211 C687.991329,72.8141266 688.408806,70.9098488 689.243771,69.1227305 C690.078736,67.3356122 691.345813,65.7389484 693.04504,64.3326914 C694.685673,62.9557314 696.773055,61.8644337 699.307247,61.0587656 C701.84144,60.2530975 704.675884,59.8502695 707.810665,59.8502695 C710.740367,59.8502695 713.706646,60.2091527 716.709591,60.9269297 C719.712536,61.6447067 722.210069,62.51628 724.202267,63.5416758 L724.202267,72.3746836 L723.762814,72.3746836 C721.653428,70.8219414 719.089977,69.5109194 716.072384,68.4415781 C713.054791,67.3722368 710.095836,66.8375742 707.195431,66.8375742 C704.177838,66.8375742 701.629035,67.4161817 699.548947,68.5734141 C697.468858,69.7306464 696.428829,71.4518206 696.428829,73.7369883 C696.428829,75.7584828 697.058706,77.281905 698.318478,78.3073008 C699.548953,79.3326965 701.54112,80.1676491 704.29504,80.8121836 C705.818485,81.1637478 707.525011,81.5153068 709.414669,81.8668711 C711.304327,82.2184353 712.879018,82.5406977 714.13879,82.833668 C717.9767,83.7125786 720.935655,85.2213526 723.015743,87.3600352 C725.095832,89.5280147 726.135861,92.3990798 726.135861,95.9733164 Z" id="pricegenius" fill-opacity="0.95" fill="#FFFFFF" fill-rule="nonzero"/>
                <g id="Group">
                    <g id="Stroke-1">
                        <mask id="mask-2" fill="white">
                            <use xlink:href="#path-1"/>
                        </mask>
                        <use id="Mask" fill="#FFFFFF" fill-rule="nonzero" xlink:href="#path-1"/>
                        <path d="M-2,-0.393368176 L33.2950268,-1 L165.770742,29.0864215 C170.428117,29.0864215 117.900892,67.6049557 8.18906654,144.642024 L-2,-0.393368176 Z" fill="#4651B8" opacity="0.15" mask="url(#mask-2)"/>
                    </g>
                    <path d="M69.9180153,143.599904 C69.9180153,147.194404 67.0060153,150.099904 63.4180153,150.099904 C59.8300153,150.099904 56.9180153,147.194404 56.9180153,143.599904 C56.9180153,140.005404 59.8300153,137.099904 63.4180153,137.099904 C67.0060153,137.099904 69.9180153,140.005404 69.9180153,143.599904" id="Fill-5" fill="#FFFFFF"/>
                    <path d="M65.4180153,143.599904 C65.4180153,142.493626 64.5236756,141.599904 63.4180153,141.599904 C62.312355,141.599904 61.4180153,142.493626 61.4180153,143.599904 C61.4180153,144.706182 62.312355,145.599904 63.4180153,145.599904 C64.5236756,145.599904 65.4180153,144.706182 65.4180153,143.599904 Z M74.4180153,143.599904 C74.4180153,149.678137 69.492847,154.599904 63.4180153,154.599904 C57.3431836,154.599904 52.4180153,149.678137 52.4180153,143.599904 C52.4180153,137.521671 57.3431836,132.599904 63.4180153,132.599904 C69.492847,132.599904 74.4180153,137.521671 74.4180153,143.599904 Z" id="Stroke-7" fill="#FFFFFF" fill-rule="nonzero"/>
                    <path d="M121.918015,143.599904 C121.918015,147.194404 119.006015,150.099904 115.418015,150.099904 C111.830015,150.099904 108.918015,147.194404 108.918015,143.599904 C108.918015,140.005404 111.830015,137.099904 115.418015,137.099904 C119.006015,137.099904 121.918015,140.005404 121.918015,143.599904" id="Fill-9" fill="#FFFFFF"/>
                    <path d="M117.418015,143.599904 C117.418015,142.493626 116.523676,141.599904 115.418015,141.599904 C114.312355,141.599904 113.418015,142.493626 113.418015,143.599904 C113.418015,144.706182 114.312355,145.599904 115.418015,145.599904 C116.523676,145.599904 117.418015,144.706182 117.418015,143.599904 Z M126.418015,143.599904 C126.418015,149.678137 121.492847,154.599904 115.418015,154.599904 C109.343184,154.599904 104.418015,149.678137 104.418015,143.599904 C104.418015,137.521671 109.343184,132.599904 115.418015,132.599904 C121.492847,132.599904 126.418015,137.521671 126.418015,143.599904 Z" id="Stroke-11" fill="#FFFFFF" fill-rule="nonzero"/>
                    <path d="M156.69365,113.620389 C157.200072,114.614883 156.794608,115.831436 155.792814,116.323259 L141.893943,123.146788 C140.912659,123.628541 139.726375,123.233166 139.230321,122.259033 L133.518408,111.042177 L121.565471,122.778558 C120.300357,124.020751 118.164244,123.124484 118.164244,121.351476 L118.164244,63.3514756 C118.164244,61.7002696 120.052036,60.760358 121.369645,61.7555405 L166.540975,95.8731875 C167.920566,96.9151849 167.417446,99.0984909 165.720966,99.4316397 L150.94588,102.33312 L156.69365,113.620389 Z" id="Stroke-1" fill="#FFFFFF" fill-rule="nonzero" transform="translate(142.750634, 92.351653) rotate(-15.000000) translate(-142.750634, -92.351653) "/>
                </g>
            </g>
        </g>
    </g>
</svg>